<svg xmlns="http://www.w3.org/2000/svg" viewBox="0 0 1993.51 1626.36">

<path 
  d="M481.44,108.84s617.77-20.94,890,0c26.17-57.59,83.76-86.39,146.58-89s133.51,18.32,154.45,109.94h172.76s130,49.73,141.36,70.67,7.24,492.5,7.24,492.5l-7.92,55.44-2.47,248.05L1994.58,1172s-13.6,227.48-11.13,314,16,116,11.13,126.44-18.75,13.9-40.47,13.9S1335.59,1602,1293,1599.43s-305.33-18.12-413.61-18.12-677.55-9.28-724-9.28S57.81,1552.87,27,1509.33,2.66,1438.5,2.66,1438.5l11.05-395.1S26.07,935.12,26.07,815.5s-7.73-224.64-7.73-326.58-1.54-335.16,0-369.14c80.32-3.09,186.89-6.18,186.89-6.18S226.85,0,350.41,0,482.72,87.08,481.44,108.84Z" 
  transform="translate(-2.11)" 
/>
</svg>